<?xml version="1.0" encoding="UTF-8" standalone="yes"?>
<svg xmlns="http://www.w3.org/2000/svg" xmlns:xlink="http://www.w3.org/1999/xlink" height="598px" style="width:2259px;height:598px;" version="1.1" viewBox="0 0 2259 598" width="2259px"><defs><filter height="300%" id="f1" width="300%" x="-1" y="-1"><feGaussianBlur result="blurOut" stdDeviation="2.0"/><feColorMatrix in="blurOut" result="blurOut2" type="matrix" values="0 0 0 0 0 0 0 0 0 0 0 0 0 0 0 0 0 0 .4 0"/><feOffset dx="4.0" dy="4.0" in="blurOut2" result="blurOut3"/><feBlend in="SourceGraphic" in2="blurOut3" mode="normal"/></filter></defs><g><polygon fill="#FFFFFF" filter="url(#f1)" points="22,81.5,79,81.5,86,103.7969,800,103.7969,800,480,22,480,22,81.5" style="stroke: #000000; stroke-width: 2.0;"/><line style="stroke: #000000; stroke-width: 2.0;" x1="22" x2="86" y1="103.7969" y2="103.7969"/><text fill="#000000" font-family="sans-serif" font-size="14" font-weight="bold" lengthAdjust="spacingAndGlyphs" textLength="51" x="26" y="96.4951">metier</text><polygon fill="#FFFFFF" filter="url(#f1)" points="1302,24,1380,24,1387,46.2969,2252,46.2969,2252,289,1302,289,1302,24" style="stroke: #000000; stroke-width: 2.0;"/><line style="stroke: #000000; stroke-width: 2.0;" x1="1302" x2="1387" y1="46.2969" y2="46.2969"/><text fill="#000000" font-family="sans-serif" font-size="14" font-weight="bold" lengthAdjust="spacingAndGlyphs" textLength="72" x="1306" y="38.9951">database</text><polygon fill="#FFFFFF" filter="url(#f1)" points="824,342.5,898,342.5,905,364.7969,2184,364.7969,2184,591,824,591,824,342.5" style="stroke: #000000; stroke-width: 2.0;"/><line style="stroke: #000000; stroke-width: 2.0;" x1="824" x2="905" y1="364.7969" y2="364.7969"/><text fill="#000000" font-family="sans-serif" font-size="14" font-weight="bold" lengthAdjust="spacingAndGlyphs" textLength="68" x="828" y="357.4951">frontEnd</text><rect fill="#FEFECE" filter="url(#f1)" height="99.2188" style="stroke: #A80036; stroke-width: 1.5;" width="447" x="187.5" y="116.5"/><ellipse cx="370.75" cy="132.5" fill="#ADD1B2" rx="11" ry="11" style="stroke: #A80036; stroke-width: 1.0;"/><path d="M373.0938,128.1719 L373.2656,128.25 C373.4844,127.9375 373.6875,127.8438 373.9844,127.8438 C374.2813,127.8438 374.5625,127.9844 374.7188,128.25 C374.8125,128.4063 374.8281,128.5313 374.8281,128.9688 L374.8281,130.3906 C374.8281,130.8125 374.7969,131 374.6875,131.1563 C374.5156,131.375 374.25,131.5156 373.9844,131.5156 C373.7656,131.5156 373.5313,131.4063 373.3906,131.2656 C373.25,131.1406 373.2188,131.0156 373.1563,130.6094 C373.0625,130.2031 372.8906,129.9844 372.4063,129.7031 C371.9375,129.4531 371.3281,129.2969 370.75,129.2969 C369.0156,129.2969 367.7656,130.6094 367.7656,132.3906 L367.7656,133.4844 C367.7656,135.1875 369.0625,136.2813 371.1094,136.2813 C371.875,136.2813 372.5625,136.1563 372.9844,135.8906 C373.1719,135.7969 373.1719,135.7969 373.625,135.3125 C373.8125,135.125 374.0156,135.0469 374.2344,135.0469 C374.7031,135.0469 375.0938,135.4375 375.0938,135.8906 C375.0938,136.2813 374.7656,136.7344 374.1875,137.1406 C373.4375,137.6875 372.2813,137.9844 371.0625,137.9844 C368.1719,137.9844 366.0625,136.0938 366.0625,133.5156 L366.0625,132.3906 C366.0625,129.6719 368.0625,127.5938 370.6875,127.5938 C371.5625,127.5938 372.1563,127.7344 373.0938,128.1719 Z "/><text fill="#000000" font-family="sans-serif" font-size="12" lengthAdjust="spacingAndGlyphs" textLength="72" x="391.25" y="136.6543">Laboratoire</text><line style="stroke: #A80036; stroke-width: 1.5;" x1="188.5" x2="633.5" y1="148.5" y2="148.5"/><text fill="#000000" font-family="sans-serif" font-size="11" lengthAdjust="spacingAndGlyphs" textLength="234" x="193.5" y="162.7104">String name, mail, password, telephone;</text><line style="stroke: #A80036; stroke-width: 1.5;" x1="188.5" x2="633.5" y1="169.3047" y2="169.3047"/><ellipse cx="198.5" cy="181.207" fill="#84BE84" rx="3" ry="3" style="stroke: #038048; stroke-width: 1.0;"/><text fill="#000000" font-family="sans-serif" font-size="11" lengthAdjust="spacingAndGlyphs" textLength="421" x="207.5" y="183.5151">Laboratoire(String name, String mail,  String telephone, String password)</text><ellipse cx="198.5" cy="194.0117" fill="#84BE84" rx="3" ry="3" style="stroke: #038048; stroke-width: 1.0;"/><text fill="#000000" font-family="sans-serif" font-size="11" lengthAdjust="spacingAndGlyphs" textLength="83" x="207.5" y="196.3198">int hashCode()</text><ellipse cx="198.5" cy="206.8164" fill="#84BE84" rx="3" ry="3" style="stroke: #038048; stroke-width: 1.0;"/><text fill="#000000" font-family="sans-serif" font-size="11" lengthAdjust="spacingAndGlyphs" textLength="152" x="207.5" y="209.1245">boolean equals(Object obj)</text><rect fill="#FEFECE" filter="url(#f1)" height="112.0234" style="stroke: #A80036; stroke-width: 1.5;" width="745" x="38.5" y="352"/><ellipse cx="386.75" cy="368" fill="#ADD1B2" rx="11" ry="11" style="stroke: #A80036; stroke-width: 1.0;"/><path d="M389.0938,363.6719 L389.2656,363.75 C389.4844,363.4375 389.6875,363.3438 389.9844,363.3438 C390.2813,363.3438 390.5625,363.4844 390.7188,363.75 C390.8125,363.9063 390.8281,364.0313 390.8281,364.4688 L390.8281,365.8906 C390.8281,366.3125 390.7969,366.5 390.6875,366.6563 C390.5156,366.875 390.25,367.0156 389.9844,367.0156 C389.7656,367.0156 389.5313,366.9063 389.3906,366.7656 C389.25,366.6406 389.2188,366.5156 389.1563,366.1094 C389.0625,365.7031 388.8906,365.4844 388.4063,365.2031 C387.9375,364.9531 387.3281,364.7969 386.75,364.7969 C385.0156,364.7969 383.7656,366.1094 383.7656,367.8906 L383.7656,368.9844 C383.7656,370.6875 385.0625,371.7813 387.1094,371.7813 C387.875,371.7813 388.5625,371.6563 388.9844,371.3906 C389.1719,371.2969 389.1719,371.2969 389.625,370.8125 C389.8125,370.625 390.0156,370.5469 390.2344,370.5469 C390.7031,370.5469 391.0938,370.9375 391.0938,371.3906 C391.0938,371.7813 390.7656,372.2344 390.1875,372.6406 C389.4375,373.1875 388.2813,373.4844 387.0625,373.4844 C384.1719,373.4844 382.0625,371.5938 382.0625,369.0156 L382.0625,367.8906 C382.0625,365.1719 384.0625,363.0938 386.6875,363.0938 C387.5625,363.0938 388.1563,363.2344 389.0938,363.6719 Z "/><text fill="#000000" font-family="sans-serif" font-size="12" lengthAdjust="spacingAndGlyphs" textLength="40" x="407.25" y="372.1543">Atelier</text><line style="stroke: #A80036; stroke-width: 1.5;" x1="39.5" x2="782.5" y1="384" y2="384"/><text fill="#000000" font-family="sans-serif" font-size="11" lengthAdjust="spacingAndGlyphs" textLength="424" x="44.5" y="398.2104">private String name, description, lieu, responsable, date, heure1, heure2;</text><text fill="#000000" font-family="sans-serif" font-size="11" lengthAdjust="spacingAndGlyphs" textLength="109" x="44.5" y="411.0151">private int nbPlace;</text><line style="stroke: #A80036; stroke-width: 1.5;" x1="39.5" x2="782.5" y1="417.6094" y2="417.6094"/><ellipse cx="49.5" cy="429.5117" fill="#84BE84" rx="3" ry="3" style="stroke: #038048; stroke-width: 1.0;"/><text fill="#000000" font-family="sans-serif" font-size="11" lengthAdjust="spacingAndGlyphs" textLength="719" x="58.5" y="431.8198">Atelier(String name, String description, String lieu, String responsable, String date, String heure1, String heure2, int nbPlace)</text><ellipse cx="49.5" cy="442.3164" fill="#84BE84" rx="3" ry="3" style="stroke: #038048; stroke-width: 1.0;"/><text fill="#000000" font-family="sans-serif" font-size="11" lengthAdjust="spacingAndGlyphs" textLength="83" x="58.5" y="444.6245">int hashCode()</text><ellipse cx="49.5" cy="455.1211" fill="#84BE84" rx="3" ry="3" style="stroke: #038048; stroke-width: 1.0;"/><text fill="#000000" font-family="sans-serif" font-size="11" lengthAdjust="spacingAndGlyphs" textLength="152" x="58.5" y="457.4292">boolean equals(Object obj)</text><rect fill="#FEFECE" filter="url(#f1)" height="214.4609" style="stroke: #A80036; stroke-width: 1.5;" width="918" x="1318" y="59"/><ellipse cx="1727.75" cy="75" fill="#ADD1B2" rx="11" ry="11" style="stroke: #A80036; stroke-width: 1.0;"/><path d="M1730.0938,70.6719 L1730.2656,70.75 C1730.4844,70.4375 1730.6875,70.3438 1730.9844,70.3438 C1731.2813,70.3438 1731.5625,70.4844 1731.7188,70.75 C1731.8125,70.9063 1731.8281,71.0313 1731.8281,71.4688 L1731.8281,72.8906 C1731.8281,73.3125 1731.7969,73.5 1731.6875,73.6563 C1731.5156,73.875 1731.25,74.0156 1730.9844,74.0156 C1730.7656,74.0156 1730.5313,73.9063 1730.3906,73.7656 C1730.25,73.6406 1730.2188,73.5156 1730.1563,73.1094 C1730.0625,72.7031 1729.8906,72.4844 1729.4063,72.2031 C1728.9375,71.9531 1728.3281,71.7969 1727.75,71.7969 C1726.0156,71.7969 1724.7656,73.1094 1724.7656,74.8906 L1724.7656,75.9844 C1724.7656,77.6875 1726.0625,78.7813 1728.1094,78.7813 C1728.875,78.7813 1729.5625,78.6563 1729.9844,78.3906 C1730.1719,78.2969 1730.1719,78.2969 1730.625,77.8125 C1730.8125,77.625 1731.0156,77.5469 1731.2344,77.5469 C1731.7031,77.5469 1732.0938,77.9375 1732.0938,78.3906 C1732.0938,78.7813 1731.7656,79.2344 1731.1875,79.6406 C1730.4375,80.1875 1729.2813,80.4844 1728.0625,80.4844 C1725.1719,80.4844 1723.0625,78.5938 1723.0625,76.0156 L1723.0625,74.8906 C1723.0625,72.1719 1725.0625,70.0938 1727.6875,70.0938 C1728.5625,70.0938 1729.1563,70.2344 1730.0938,70.6719 Z "/><text fill="#000000" font-family="sans-serif" font-size="12" lengthAdjust="spacingAndGlyphs" textLength="90" x="1748.25" y="79.1543">MainDatabase</text><line style="stroke: #A80036; stroke-width: 1.5;" x1="1319" x2="2235" y1="91" y2="91"/><line style="stroke: #A80036; stroke-width: 1.5;" x1="1319" x2="2235" y1="99" y2="99"/><ellipse cx="1329" cy="110.9023" fill="#84BE84" rx="3" ry="3" style="stroke: #038048; stroke-width: 1.0;"/><text fill="#000000" font-family="sans-serif" font-size="11" lengthAdjust="spacingAndGlyphs" textLength="167" x="1338" y="113.2104">void createTableLaboratoire()</text><ellipse cx="1329" cy="123.707" fill="#84BE84" rx="3" ry="3" style="stroke: #038048; stroke-width: 1.0;"/><text fill="#000000" font-family="sans-serif" font-size="11" lengthAdjust="spacingAndGlyphs" textLength="138" x="1338" y="126.0151">void createTableAtelier()</text><ellipse cx="1329" cy="136.5117" fill="#84BE84" rx="3" ry="3" style="stroke: #038048; stroke-width: 1.0;"/><text fill="#000000" font-family="sans-serif" font-size="11" lengthAdjust="spacingAndGlyphs" textLength="172" x="1338" y="138.8198">Connection getDBConnection()</text><ellipse cx="1329" cy="149.3164" fill="#84BE84" rx="3" ry="3" style="stroke: #038048; stroke-width: 1.0;"/><text fill="#000000" font-family="sans-serif" font-size="11" lengthAdjust="spacingAndGlyphs" textLength="157" x="1338" y="151.6245">void dropTableLaboratoire()</text><ellipse cx="1329" cy="162.1211" fill="#84BE84" rx="3" ry="3" style="stroke: #038048; stroke-width: 1.0;"/><text fill="#000000" font-family="sans-serif" font-size="11" lengthAdjust="spacingAndGlyphs" textLength="128" x="1338" y="164.4292">void dropTableAtelier()</text><ellipse cx="1329" cy="174.9258" fill="#84BE84" rx="3" ry="3" style="stroke: #038048; stroke-width: 1.0;"/><text fill="#000000" font-family="sans-serif" font-size="11" lengthAdjust="spacingAndGlyphs" textLength="496" x="1338" y="177.2339">void addLaboratoire(String name, String email, String phoneNumber, String password)</text><ellipse cx="1329" cy="187.7305" fill="#84BE84" rx="3" ry="3" style="stroke: #038048; stroke-width: 1.0;"/><text fill="#000000" font-family="sans-serif" font-size="11" lengthAdjust="spacingAndGlyphs" textLength="767" x="1338" y="190.0386">void addAtelier(String name, String description, String lieu, String responsable, String date, String heure1, String heure2, int nbPlace)</text><ellipse cx="1329" cy="200.5352" fill="#84BE84" rx="3" ry="3" style="stroke: #038048; stroke-width: 1.0;"/><text fill="#000000" font-family="sans-serif" font-size="11" lengthAdjust="spacingAndGlyphs" textLength="892" x="1338" y="202.8433">void updateAtelier(String nameBase, String name, String description, String lieu, String responsable, String date, String heure1, String heure2, int nbPlace)</text><ellipse cx="1329" cy="213.3398" fill="#84BE84" rx="3" ry="3" style="stroke: #038048; stroke-width: 1.0;"/><text fill="#000000" font-family="sans-serif" font-size="11" lengthAdjust="spacingAndGlyphs" textLength="277" x="1338" y="215.6479">Laboratoire getLaboratoireByName(String name)</text><ellipse cx="1329" cy="226.1445" fill="#84BE84" rx="3" ry="3" style="stroke: #038048; stroke-width: 1.0;"/><text fill="#000000" font-family="sans-serif" font-size="11" lengthAdjust="spacingAndGlyphs" textLength="336" x="1338" y="228.4526">List&lt;Atelier&gt; getAtelierByResponsable(String responsable)</text><ellipse cx="1329" cy="238.9492" fill="#84BE84" rx="3" ry="3" style="stroke: #038048; stroke-width: 1.0;"/><text fill="#000000" font-family="sans-serif" font-size="11" lengthAdjust="spacingAndGlyphs" textLength="219" x="1338" y="241.2573">Atelier getAtelierByName(String name)</text><ellipse cx="1329" cy="251.7539" fill="#84BE84" rx="3" ry="3" style="stroke: #038048; stroke-width: 1.0;"/><text fill="#000000" font-family="sans-serif" font-size="11" lengthAdjust="spacingAndGlyphs" textLength="153" x="1338" y="254.062">List&lt;Atelier&gt; getAllAtelier()</text><ellipse cx="1329" cy="264.5586" fill="#84BE84" rx="3" ry="3" style="stroke: #038048; stroke-width: 1.0;"/><text fill="#000000" font-family="sans-serif" font-size="11" lengthAdjust="spacingAndGlyphs" textLength="305" x="1338" y="266.8667">boolean connexionLabo(String mail, String password)</text><rect fill="#FEFECE" filter="url(#f1)" height="48" style="stroke: #A80036; stroke-width: 1.5;" width="151" x="840.5" y="384"/><ellipse cx="855.5" cy="400" fill="#ADD1B2" rx="11" ry="11" style="stroke: #A80036; stroke-width: 1.0;"/><path d="M857.8438,395.6719 L858.0156,395.75 C858.2344,395.4375 858.4375,395.3438 858.7344,395.3438 C859.0313,395.3438 859.3125,395.4844 859.4688,395.75 C859.5625,395.9063 859.5781,396.0313 859.5781,396.4688 L859.5781,397.8906 C859.5781,398.3125 859.5469,398.5 859.4375,398.6563 C859.2656,398.875 859,399.0156 858.7344,399.0156 C858.5156,399.0156 858.2813,398.9063 858.1406,398.7656 C858,398.6406 857.9688,398.5156 857.9063,398.1094 C857.8125,397.7031 857.6406,397.4844 857.1563,397.2031 C856.6875,396.9531 856.0781,396.7969 855.5,396.7969 C853.7656,396.7969 852.5156,398.1094 852.5156,399.8906 L852.5156,400.9844 C852.5156,402.6875 853.8125,403.7813 855.8594,403.7813 C856.625,403.7813 857.3125,403.6563 857.7344,403.3906 C857.9219,403.2969 857.9219,403.2969 858.375,402.8125 C858.5625,402.625 858.7656,402.5469 858.9844,402.5469 C859.4531,402.5469 859.8438,402.9375 859.8438,403.3906 C859.8438,403.7813 859.5156,404.2344 858.9375,404.6406 C858.1875,405.1875 857.0313,405.4844 855.8125,405.4844 C852.9219,405.4844 850.8125,403.5938 850.8125,401.0156 L850.8125,399.8906 C850.8125,397.1719 852.8125,395.0938 855.4375,395.0938 C856.3125,395.0938 856.9063,395.2344 857.8438,395.6719 Z "/><text fill="#000000" font-family="sans-serif" font-size="12" lengthAdjust="spacingAndGlyphs" textLength="119" x="869.5" y="404.1543">DetailAtelierServlet</text><line style="stroke: #A80036; stroke-width: 1.5;" x1="841.5" x2="990.5" y1="416" y2="416"/><line style="stroke: #A80036; stroke-width: 1.5;" x1="841.5" x2="990.5" y1="424" y2="424"/><rect fill="#FEFECE" filter="url(#f1)" height="48" style="stroke: #A80036; stroke-width: 1.5;" width="119" x="1336.5" y="384"/><ellipse cx="1351.5" cy="400" fill="#ADD1B2" rx="11" ry="11" style="stroke: #A80036; stroke-width: 1.0;"/><path d="M1353.8438,395.6719 L1354.0156,395.75 C1354.2344,395.4375 1354.4375,395.3438 1354.7344,395.3438 C1355.0313,395.3438 1355.3125,395.4844 1355.4688,395.75 C1355.5625,395.9063 1355.5781,396.0313 1355.5781,396.4688 L1355.5781,397.8906 C1355.5781,398.3125 1355.5469,398.5 1355.4375,398.6563 C1355.2656,398.875 1355,399.0156 1354.7344,399.0156 C1354.5156,399.0156 1354.2813,398.9063 1354.1406,398.7656 C1354,398.6406 1353.9688,398.5156 1353.9063,398.1094 C1353.8125,397.7031 1353.6406,397.4844 1353.1563,397.2031 C1352.6875,396.9531 1352.0781,396.7969 1351.5,396.7969 C1349.7656,396.7969 1348.5156,398.1094 1348.5156,399.8906 L1348.5156,400.9844 C1348.5156,402.6875 1349.8125,403.7813 1351.8594,403.7813 C1352.625,403.7813 1353.3125,403.6563 1353.7344,403.3906 C1353.9219,403.2969 1353.9219,403.2969 1354.375,402.8125 C1354.5625,402.625 1354.7656,402.5469 1354.9844,402.5469 C1355.4531,402.5469 1355.8438,402.9375 1355.8438,403.3906 C1355.8438,403.7813 1355.5156,404.2344 1354.9375,404.6406 C1354.1875,405.1875 1353.0313,405.4844 1351.8125,405.4844 C1348.9219,405.4844 1346.8125,403.5938 1346.8125,401.0156 L1346.8125,399.8906 C1346.8125,397.1719 1348.8125,395.0938 1351.4375,395.0938 C1352.3125,395.0938 1352.9063,395.2344 1353.8438,395.6719 Z "/><text fill="#000000" font-family="sans-serif" font-size="12" lengthAdjust="spacingAndGlyphs" textLength="87" x="1365.5" y="404.1543">AccueilServlet</text><line style="stroke: #A80036; stroke-width: 1.5;" x1="1337.5" x2="1454.5" y1="416" y2="416"/><line style="stroke: #A80036; stroke-width: 1.5;" x1="1337.5" x2="1454.5" y1="424" y2="424"/><rect fill="#FEFECE" filter="url(#f1)" height="48" style="stroke: #A80036; stroke-width: 1.5;" width="209" x="1672.5" y="384"/><ellipse cx="1687.5" cy="400" fill="#ADD1B2" rx="11" ry="11" style="stroke: #A80036; stroke-width: 1.0;"/><path d="M1689.8438,395.6719 L1690.0156,395.75 C1690.2344,395.4375 1690.4375,395.3438 1690.7344,395.3438 C1691.0313,395.3438 1691.3125,395.4844 1691.4688,395.75 C1691.5625,395.9063 1691.5781,396.0313 1691.5781,396.4688 L1691.5781,397.8906 C1691.5781,398.3125 1691.5469,398.5 1691.4375,398.6563 C1691.2656,398.875 1691,399.0156 1690.7344,399.0156 C1690.5156,399.0156 1690.2813,398.9063 1690.1406,398.7656 C1690,398.6406 1689.9688,398.5156 1689.9063,398.1094 C1689.8125,397.7031 1689.6406,397.4844 1689.1563,397.2031 C1688.6875,396.9531 1688.0781,396.7969 1687.5,396.7969 C1685.7656,396.7969 1684.5156,398.1094 1684.5156,399.8906 L1684.5156,400.9844 C1684.5156,402.6875 1685.8125,403.7813 1687.8594,403.7813 C1688.625,403.7813 1689.3125,403.6563 1689.7344,403.3906 C1689.9219,403.2969 1689.9219,403.2969 1690.375,402.8125 C1690.5625,402.625 1690.7656,402.5469 1690.9844,402.5469 C1691.4531,402.5469 1691.8438,402.9375 1691.8438,403.3906 C1691.8438,403.7813 1691.5156,404.2344 1690.9375,404.6406 C1690.1875,405.1875 1689.0313,405.4844 1687.8125,405.4844 C1684.9219,405.4844 1682.8125,403.5938 1682.8125,401.0156 L1682.8125,399.8906 C1682.8125,397.1719 1684.8125,395.0938 1687.4375,395.0938 C1688.3125,395.0938 1688.9063,395.2344 1689.8438,395.6719 Z "/><text fill="#000000" font-family="sans-serif" font-size="12" lengthAdjust="spacingAndGlyphs" textLength="177" x="1701.5" y="404.1543">AjouterModifierAtelierServlet</text><line style="stroke: #A80036; stroke-width: 1.5;" x1="1673.5" x2="1880.5" y1="416" y2="416"/><line style="stroke: #A80036; stroke-width: 1.5;" x1="1673.5" x2="1880.5" y1="424" y2="424"/><rect fill="#FEFECE" filter="url(#f1)" height="48" style="stroke: #A80036; stroke-width: 1.5;" width="147" x="1490.5" y="384"/><ellipse cx="1505.5" cy="400" fill="#ADD1B2" rx="11" ry="11" style="stroke: #A80036; stroke-width: 1.0;"/><path d="M1507.8438,395.6719 L1508.0156,395.75 C1508.2344,395.4375 1508.4375,395.3438 1508.7344,395.3438 C1509.0313,395.3438 1509.3125,395.4844 1509.4688,395.75 C1509.5625,395.9063 1509.5781,396.0313 1509.5781,396.4688 L1509.5781,397.8906 C1509.5781,398.3125 1509.5469,398.5 1509.4375,398.6563 C1509.2656,398.875 1509,399.0156 1508.7344,399.0156 C1508.5156,399.0156 1508.2813,398.9063 1508.1406,398.7656 C1508,398.6406 1507.9688,398.5156 1507.9063,398.1094 C1507.8125,397.7031 1507.6406,397.4844 1507.1563,397.2031 C1506.6875,396.9531 1506.0781,396.7969 1505.5,396.7969 C1503.7656,396.7969 1502.5156,398.1094 1502.5156,399.8906 L1502.5156,400.9844 C1502.5156,402.6875 1503.8125,403.7813 1505.8594,403.7813 C1506.625,403.7813 1507.3125,403.6563 1507.7344,403.3906 C1507.9219,403.2969 1507.9219,403.2969 1508.375,402.8125 C1508.5625,402.625 1508.7656,402.5469 1508.9844,402.5469 C1509.4531,402.5469 1509.8438,402.9375 1509.8438,403.3906 C1509.8438,403.7813 1509.5156,404.2344 1508.9375,404.6406 C1508.1875,405.1875 1507.0313,405.4844 1505.8125,405.4844 C1502.9219,405.4844 1500.8125,403.5938 1500.8125,401.0156 L1500.8125,399.8906 C1500.8125,397.1719 1502.8125,395.0938 1505.4375,395.0938 C1506.3125,395.0938 1506.9063,395.2344 1507.8438,395.6719 Z "/><text fill="#000000" font-family="sans-serif" font-size="12" lengthAdjust="spacingAndGlyphs" textLength="115" x="1519.5" y="404.1543">LaboratoireServlet</text><line style="stroke: #A80036; stroke-width: 1.5;" x1="1491.5" x2="1636.5" y1="416" y2="416"/><line style="stroke: #A80036; stroke-width: 1.5;" x1="1491.5" x2="1636.5" y1="424" y2="424"/><rect fill="#FEFECE" filter="url(#f1)" height="48" style="stroke: #A80036; stroke-width: 1.5;" width="136" x="1917" y="384"/><ellipse cx="1932" cy="400" fill="#ADD1B2" rx="11" ry="11" style="stroke: #A80036; stroke-width: 1.0;"/><path d="M1934.3438,395.6719 L1934.5156,395.75 C1934.7344,395.4375 1934.9375,395.3438 1935.2344,395.3438 C1935.5313,395.3438 1935.8125,395.4844 1935.9688,395.75 C1936.0625,395.9063 1936.0781,396.0313 1936.0781,396.4688 L1936.0781,397.8906 C1936.0781,398.3125 1936.0469,398.5 1935.9375,398.6563 C1935.7656,398.875 1935.5,399.0156 1935.2344,399.0156 C1935.0156,399.0156 1934.7813,398.9063 1934.6406,398.7656 C1934.5,398.6406 1934.4688,398.5156 1934.4063,398.1094 C1934.3125,397.7031 1934.1406,397.4844 1933.6563,397.2031 C1933.1875,396.9531 1932.5781,396.7969 1932,396.7969 C1930.2656,396.7969 1929.0156,398.1094 1929.0156,399.8906 L1929.0156,400.9844 C1929.0156,402.6875 1930.3125,403.7813 1932.3594,403.7813 C1933.125,403.7813 1933.8125,403.6563 1934.2344,403.3906 C1934.4219,403.2969 1934.4219,403.2969 1934.875,402.8125 C1935.0625,402.625 1935.2656,402.5469 1935.4844,402.5469 C1935.9531,402.5469 1936.3438,402.9375 1936.3438,403.3906 C1936.3438,403.7813 1936.0156,404.2344 1935.4375,404.6406 C1934.6875,405.1875 1933.5313,405.4844 1932.3125,405.4844 C1929.4219,405.4844 1927.3125,403.5938 1927.3125,401.0156 L1927.3125,399.8906 C1927.3125,397.1719 1929.3125,395.0938 1931.9375,395.0938 C1932.8125,395.0938 1933.4063,395.2344 1934.3438,395.6719 Z "/><text fill="#000000" font-family="sans-serif" font-size="12" lengthAdjust="spacingAndGlyphs" textLength="104" x="1946" y="404.1543">ListAtelierServlet</text><line style="stroke: #A80036; stroke-width: 1.5;" x1="1918" x2="2052" y1="416" y2="416"/><line style="stroke: #A80036; stroke-width: 1.5;" x1="1918" x2="2052" y1="424" y2="424"/><rect fill="#FEFECE" filter="url(#f1)" height="48" style="stroke: #A80036; stroke-width: 1.5;" width="128" x="1500" y="527"/><ellipse cx="1515" cy="543" fill="#ADD1B2" rx="11" ry="11" style="stroke: #A80036; stroke-width: 1.0;"/><path d="M1517.3438,538.6719 L1517.5156,538.75 C1517.7344,538.4375 1517.9375,538.3438 1518.2344,538.3438 C1518.5313,538.3438 1518.8125,538.4844 1518.9688,538.75 C1519.0625,538.9063 1519.0781,539.0313 1519.0781,539.4688 L1519.0781,540.8906 C1519.0781,541.3125 1519.0469,541.5 1518.9375,541.6563 C1518.7656,541.875 1518.5,542.0156 1518.2344,542.0156 C1518.0156,542.0156 1517.7813,541.9063 1517.6406,541.7656 C1517.5,541.6406 1517.4688,541.5156 1517.4063,541.1094 C1517.3125,540.7031 1517.1406,540.4844 1516.6563,540.2031 C1516.1875,539.9531 1515.5781,539.7969 1515,539.7969 C1513.2656,539.7969 1512.0156,541.1094 1512.0156,542.8906 L1512.0156,543.9844 C1512.0156,545.6875 1513.3125,546.7813 1515.3594,546.7813 C1516.125,546.7813 1516.8125,546.6563 1517.2344,546.3906 C1517.4219,546.2969 1517.4219,546.2969 1517.875,545.8125 C1518.0625,545.625 1518.2656,545.5469 1518.4844,545.5469 C1518.9531,545.5469 1519.3438,545.9375 1519.3438,546.3906 C1519.3438,546.7813 1519.0156,547.2344 1518.4375,547.6406 C1517.6875,548.1875 1516.5313,548.4844 1515.3125,548.4844 C1512.4219,548.4844 1510.3125,546.5938 1510.3125,544.0156 L1510.3125,542.8906 C1510.3125,540.1719 1512.3125,538.0938 1514.9375,538.0938 C1515.8125,538.0938 1516.4063,538.2344 1517.3438,538.6719 Z "/><text fill="#000000" font-family="sans-serif" font-size="12" lengthAdjust="spacingAndGlyphs" textLength="96" x="1529" y="547.1543">AbstractServlet</text><line style="stroke: #A80036; stroke-width: 1.5;" x1="1501" x2="1627" y1="559" y2="559"/><line style="stroke: #A80036; stroke-width: 1.5;" x1="1501" x2="1627" y1="567" y2="567"/><rect fill="#FEFECE" filter="url(#f1)" height="60.8047" style="stroke: #A80036; stroke-width: 1.5;" width="274" x="1027" y="377.5"/><ellipse cx="1142.75" cy="393.5" fill="#B4A7E5" rx="11" ry="11" style="stroke: #A80036; stroke-width: 1.0;"/><path d="M1143.7031,390.2813 L1143.7031,396.7969 L1145.4219,396.7969 C1145.875,396.7969 1146.0156,396.8281 1146.1875,396.9531 C1146.4219,397.125 1146.5313,397.375 1146.5313,397.6563 C1146.5313,398.2188 1146.1719,398.5 1145.4219,398.5 L1140.2813,398.5 C1139.875,398.5 1139.6719,398.4531 1139.5156,398.3281 C1139.2969,398.1719 1139.1563,397.9063 1139.1563,397.6563 C1139.1563,397.3594 1139.3125,397.0781 1139.5625,396.9219 C1139.7188,396.8125 1139.8438,396.7969 1140.2813,396.7969 L1142,396.7969 L1142,390.2813 L1140.2813,390.2813 C1139.8594,390.2813 1139.6719,390.25 1139.5156,390.1406 C1139.2969,389.9688 1139.1563,389.7188 1139.1563,389.4375 C1139.1563,389.1563 1139.3125,388.8594 1139.5625,388.7031 C1139.7188,388.6094 1139.8438,388.5938 1140.2813,388.5938 L1145.4219,388.5938 C1145.875,388.5938 1146.0156,388.625 1146.1875,388.7344 C1146.4219,388.9063 1146.5313,389.1719 1146.5313,389.4375 C1146.5313,389.7344 1146.3906,390.0156 1146.125,390.1719 C1146,390.25 1145.8125,390.2813 1145.4219,390.2813 Z "/><text fill="#000000" font-family="sans-serif" font-size="12" font-style="italic" lengthAdjust="spacingAndGlyphs" textLength="34" x="1163.25" y="397.6543">route</text><line style="stroke: #A80036; stroke-width: 1.5;" x1="1028" x2="1300" y1="409.5" y2="409.5"/><line style="stroke: #A80036; stroke-width: 1.5;" x1="1028" x2="1300" y1="417.5" y2="417.5"/><text fill="#000000" font-family="sans-serif" font-size="11" lengthAdjust="spacingAndGlyphs" textLength="262" x="1033" y="431.7104">handle(Request request, Response response)</text><rect fill="#FEFECE" filter="url(#f1)" height="48" style="stroke: #A80036; stroke-width: 1.5;" width="79" x="2088.5" y="384"/><ellipse cx="2103.5" cy="400" fill="#ADD1B2" rx="11" ry="11" style="stroke: #A80036; stroke-width: 1.0;"/><path d="M2105.8438,395.6719 L2106.0156,395.75 C2106.2344,395.4375 2106.4375,395.3438 2106.7344,395.3438 C2107.0313,395.3438 2107.3125,395.4844 2107.4688,395.75 C2107.5625,395.9063 2107.5781,396.0313 2107.5781,396.4688 L2107.5781,397.8906 C2107.5781,398.3125 2107.5469,398.5 2107.4375,398.6563 C2107.2656,398.875 2107,399.0156 2106.7344,399.0156 C2106.5156,399.0156 2106.2813,398.9063 2106.1406,398.7656 C2106,398.6406 2105.9688,398.5156 2105.9063,398.1094 C2105.8125,397.7031 2105.6406,397.4844 2105.1563,397.2031 C2104.6875,396.9531 2104.0781,396.7969 2103.5,396.7969 C2101.7656,396.7969 2100.5156,398.1094 2100.5156,399.8906 L2100.5156,400.9844 C2100.5156,402.6875 2101.8125,403.7813 2103.8594,403.7813 C2104.625,403.7813 2105.3125,403.6563 2105.7344,403.3906 C2105.9219,403.2969 2105.9219,403.2969 2106.375,402.8125 C2106.5625,402.625 2106.7656,402.5469 2106.9844,402.5469 C2107.4531,402.5469 2107.8438,402.9375 2107.8438,403.3906 C2107.8438,403.7813 2107.5156,404.2344 2106.9375,404.6406 C2106.1875,405.1875 2105.0313,405.4844 2103.8125,405.4844 C2100.9219,405.4844 2098.8125,403.5938 2098.8125,401.0156 L2098.8125,399.8906 C2098.8125,397.1719 2100.8125,395.0938 2103.4375,395.0938 C2104.3125,395.0938 2104.9063,395.2344 2105.8438,395.6719 Z "/><text fill="#000000" font-family="sans-serif" font-size="12" lengthAdjust="spacingAndGlyphs" textLength="47" x="2117.5" y="404.1543">Visiteur</text><line style="stroke: #A80036; stroke-width: 1.5;" x1="2089.5" x2="2166.5" y1="416" y2="416"/><line style="stroke: #A80036; stroke-width: 1.5;" x1="2089.5" x2="2166.5" y1="424" y2="424"/><path d="M1232.95,448.319 C1259.29,462.215 1289.97,477.085 1319,488 C1378.76,510.4654 1449.73,527.422 1499.87,537.8747 " fill="none" style="stroke: #A80036; stroke-width: 1.0; stroke-dasharray: 7.0,7.0;"/><polygon fill="none" points="1229.34,454.328,1215.06,438.68,1235.98,442.003,1229.34,454.328" style="stroke: #A80036; stroke-width: 1.0;"/><path d="M1416.45,432.345 C1431.36,448.754 1452.46,470.764 1473,488 C1484.35,497.522 1497.16,506.959 1509.52,515.4914 " fill="none" style="stroke: #A80036; stroke-width: 1.0;"/><polygon fill="none" points="1513.76,509.9112,1526.47,526.8649,1505.97,521.5383,1513.76,509.9112" style="stroke: #A80036; stroke-width: 1.0;"/><path d="M1564,432.283 C1564,452.387 1564,481.972 1564,506.452 " fill="none" style="stroke: #A80036; stroke-width: 1.0;"/><polygon fill="none" points="1571,506.682,1564,526.6821,1557,506.682,1571,506.682" style="stroke: #A80036; stroke-width: 1.0;"/><path d="M935.972,432.307 C953.272,450.775 980.022,475.484 1009,488 C1091.56,523.6612 1345.95,540.197 1479.75,546.5987 " fill="none" style="stroke: #A80036; stroke-width: 1.0;"/><polygon fill="none" points="1480.1,539.6073,1499.75,547.5232,1479.45,553.5923,1480.1,539.6073" style="stroke: #A80036; stroke-width: 1.0;"/><path d="M1741.83,432.283 C1707.5,455.006 1654.88,489.841 1615.77,515.7279 " fill="none" style="stroke: #A80036; stroke-width: 1.0;"/><polygon fill="none" points="1619.41,521.7137,1598.87,526.9165,1611.68,510.0397,1619.41,521.7137" style="stroke: #A80036; stroke-width: 1.0;"/><path d="M1966.33,432.162 C1950.4,450.288 1925.85,474.599 1899,488 C1819.82,527.5273 1718.75,542.0291 1648.44,547.2559 " fill="none" style="stroke: #A80036; stroke-width: 1.0;"/><polygon fill="none" points="1648.52,554.2649,1628.11,548.5728,1647.62,540.2942,1648.52,554.2649" style="stroke: #A80036; stroke-width: 1.0;"/><path d="M411,229.052 C411,267.013 411,315.154 411,351.789 " fill="none" style="stroke: #A80036; stroke-width: 1.0;"/><polygon fill="#A80036" points="411,215.568,407,221.568,411,227.568,415,221.568,411,215.568" style="stroke: #A80036; stroke-width: 1.0;"/><text fill="#000000" font-family="sans-serif" font-size="13" lengthAdjust="spacingAndGlyphs" textLength="54" x="412" y="318.0669">contains</text><text fill="#000000" font-family="sans-serif" font-size="13" lengthAdjust="spacingAndGlyphs" textLength="8" x="402.4375" y="235.654">1</text><text fill="#000000" font-family="sans-serif" font-size="13" lengthAdjust="spacingAndGlyphs" textLength="36" x="372.8063" y="341.0978">many</text><path d="M1628.09,548.3701 C1779.24,543.8657 2148.1,528.7672 2185,488 C2230.78,437.42 2222.99,391.165 2185,334.5 C2170.21,312.439 2151.94,293.281 2131.4,276.645 " fill="none" style="stroke: #A80036; stroke-width: 1.0;"/><polygon fill="#A80036" points="2127.26,273.351,2131.8093,282.0862,2131.1716,276.4654,2136.7924,275.8277,2127.26,273.351" style="stroke: #A80036; stroke-width: 1.0;"/><path d="M1563.29,275.771 C1532.2,294.142 1501.2,313.959 1473,334.5 C1452.81,349.201 1432.34,368.743 1417.59,383.834 " fill="none" style="stroke: #A80036; stroke-width: 1.0;"/><polygon fill="#A80036" points="1567.87,273.071,1558.0834,274.1765,1563.5578,275.6017,1562.1325,281.0761,1567.87,273.071" style="stroke: #A80036; stroke-width: 1.0;"/><path d="M1313.06,233.223 C1210.06,257.413 1103.49,290.195 1009,334.5 C982.864,346.755 957.306,367.504 939.618,383.672 " fill="none" style="stroke: #A80036; stroke-width: 1.0;"/><polygon fill="#A80036" points="1317.97,232.077,1308.2992,230.2127,1313.0992,233.2061,1310.1058,238.0061,1317.97,232.077" style="stroke: #A80036; stroke-width: 1.0;"/><path d="M1777,278.627 C1777,318.13 1777,358.848 1777,383.547 " fill="none" style="stroke: #A80036; stroke-width: 1.0;"/><polygon fill="#A80036" points="1777,273.316,1773,282.316,1777,278.316,1781,282.316,1777,273.316" style="stroke: #A80036; stroke-width: 1.0;"/><path d="M1872.49,277.177 C1907.11,317.13 1943.01,358.545 1964.67,383.547 " fill="none" style="stroke: #A80036; stroke-width: 1.0;"/><polygon fill="#A80036" points="1869.14,273.316,1872.0021,282.7398,1872.4108,277.0977,1878.0529,277.5065,1869.14,273.316" style="stroke: #A80036; stroke-width: 1.0;"/><path d="M1317.87,247.668 C1124.58,281.626 904.409,320.31 729.409,351.057 " fill="none" style="stroke: #A80036; stroke-width: 1.0;"/><polygon fill="#A80036" points="724.245,351.964,733.8009,354.3484,729.1698,351.0999,732.4183,346.4688,724.245,351.964" style="stroke: #A80036; stroke-width: 1.0;"/><path d="M1987.01,273.177 C2016.48,291.858 2045.41,312.452 2071,334.5 C2086.06,347.476 2099.92,364.918 2110.2,379.443 " fill="none" style="stroke: #A80036; stroke-width: 1.0;"/><polygon fill="#A80036" points="2113.27,383.848,2111.3993,374.1784,2110.4084,379.7478,2104.8391,378.7569,2113.27,383.848" style="stroke: #A80036; stroke-width: 1.0;"/></g></svg>